<svg xmlns="http://www.w3.org/2000/svg" width="20.341" height="20.341" viewBox="0 0 20.341 20.341"><path d="M14.281,20.341H6.06A6.066,6.066,0,0,1,0,14.281V6.06A6.066,6.066,0,0,1,6.06,0h8.222a6.066,6.066,0,0,1,6.06,6.06v8.222A6.066,6.066,0,0,1,14.281,20.341ZM6.06,2.046A4.018,4.018,0,0,0,2.046,6.06v8.222A4.018,4.018,0,0,0,6.06,18.294h8.222a4.018,4.018,0,0,0,4.013-4.013V6.06a4.018,4.018,0,0,0-4.013-4.014Zm4.111,13.385a5.261,5.261,0,1,1,5.261-5.261A5.267,5.267,0,0,1,10.171,15.431Zm0-8.475a3.214,3.214,0,1,0,3.214,3.214A3.218,3.218,0,0,0,10.171,6.956Zm5.271-.746A1.261,1.261,0,1,1,16.7,4.949,1.262,1.262,0,0,1,15.441,6.21Z" fill="#fff"/></svg>