<svg xmlns="http://www.w3.org/2000/svg" width="19.144" height="15.555" viewBox="0 0 19.144 15.555"><path d="M19.144,1.841a7.879,7.879,0,0,1-2.256.619A3.939,3.939,0,0,0,18.615.288a7.849,7.849,0,0,1-2.495.952A3.93,3.93,0,0,0,9.326,3.927a3.971,3.971,0,0,0,.1.9A11.149,11.149,0,0,1,1.334.719,3.931,3.931,0,0,0,2.549,5.961,3.9,3.9,0,0,1,.77,5.47v.05a3.928,3.928,0,0,0,3.15,3.85,3.921,3.921,0,0,1-1.035.138,3.864,3.864,0,0,1-.739-.071,3.934,3.934,0,0,0,3.669,2.728,7.891,7.891,0,0,1-4.879,1.68A7.916,7.916,0,0,1,0,13.79a11.115,11.115,0,0,0,6.021,1.764A11.1,11.1,0,0,0,17.2,4.382c0-.171,0-.339-.011-.508a7.983,7.983,0,0,0,1.96-2.032Z" fill="#fff"/></svg>