<svg xmlns="http://www.w3.org/2000/svg" width="21.537" height="16.751" viewBox="0 0 21.537 16.751"><path d="M10.769,16.751h0c-.056,0-5.627-.04-7.315-.228-.091-.021-.2-.037-.329-.056A3.02,3.02,0,0,1,1.077,15.5a5.728,5.728,0,0,1-.854-2.36A38.133,38.133,0,0,1,0,9.29V7.5C0,5.584.221,3.636.223,3.617a5.208,5.208,0,0,1,.854-2.361A2.934,2.934,0,0,1,3.166.272h0l.06-.005C6.2.041,10.723,0,10.769,0s4.566.041,7.538.267l.1.009a2.742,2.742,0,0,1,2.052.981,5.728,5.728,0,0,1,.854,2.36c0,.019.223,1.966.223,3.883V9.29c0,1.878-.221,3.826-.223,3.845a5.73,5.73,0,0,1-.854,2.361,2.934,2.934,0,0,1-2.089.984h0l-.06.005C15.334,16.748,10.814,16.751,10.769,16.751ZM8.169,4.53v8.262l7.056-4.036Z" fill="#fff"/></svg>